<svg xmlns="http://www.w3.org/2000/svg" xmlns:xlink="http://www.w3.org/1999/xlink" xmlns:lucid="lucid" width="1520" height="1309.42"><g transform="translate(-80 -50.577611978398636)" lucid:page-tab-id="0_0"><path d="M0 0h2572.95v1360H0z" fill="#fff"/><path d="M360 200c22.1 0 40 22.4 40 50s-17.9 50-40 50H240c-22.1 0-40-22.4-40-50s17.9-50 40-50z" stroke="#000" stroke-opacity="0" fill="#54c45e"/><use xlink:href="#a" transform="matrix(1,0,0,1,205,205) translate(73.525 48.6)"/><path d="M480 388a8 8 0 0 1 8-8h164a8 8 0 0 1 8 8v104a8 8 0 0 1-8 8H488a8 8 0 0 1-8-8z" stroke="#000" stroke-opacity="0" stroke-width="2" fill="#979ea8"/><use xlink:href="#b" transform="matrix(1,0,0,1,485,385) translate(22.049999999999997 37)"/><use xlink:href="#c" transform="matrix(1,0,0,1,485,385) translate(127.95 37)"/><use xlink:href="#d" transform="matrix(1,0,0,1,485,385) translate(1.5750000000000028 58.6)"/><use xlink:href="#e" transform="matrix(1,0,0,1,485,385) translate(70.525 58.6)"/><use xlink:href="#f" transform="matrix(1,0,0,1,485,385) translate(95.525 58.6)"/><use xlink:href="#g" transform="matrix(1,0,0,1,485,385) translate(142.47500000000002 58.6)"/><use xlink:href="#h" transform="matrix(1,0,0,1,485,385) translate(50.55 80.20000000000002)"/><path d="M563.75 605a10 10 0 0 1 12.5 0l77.5 62.06a6.4 6.4 0 0 1 0 10l-77.5 62.05a10 10 0 0 1-12.5 0l-77.5-62.04a6.4 6.4 0 0 1 0-10z" stroke="#000" stroke-opacity="0" stroke-width="2" fill="#ced4db"/><use xlink:href="#i" transform="matrix(1,0,0,1,485,605) translate(52.025 60.3)"/><use xlink:href="#j" transform="matrix(1,0,0,1,485,605) translate(34.574999999999996 81.9)"/><path d="M300 300.5v32.4a12 12 0 0 0 12 12h247.5a12 12 0 0 1 12 12v16.5" stroke="#333" fill="none"/><path d="M300.5 300.5h-1v-.5h1z" stroke="#333" stroke-width=".05" fill="#333"/><path d="M571.5 388.18l-4.62-14.27h9.27z" stroke="#333" fill="#333"/><path d="M570 500.5v85.92" stroke="#333" fill="none"/><path d="M570.5 500.5h-1v-.5h1z" stroke="#333" stroke-width=".05" fill="#333"/><path d="M570 601.2l-4.63-14.28h9.26z" stroke="#333" fill="#333"/><path d="M570.5 819h-1v-19.85h1zm0-41.45h-1V741.8h1z" stroke="#333" stroke-width=".05" fill="#333"/><path d="M570 741.3l.5-.03v.55h-1v-.55z" fill="#333"/><path d="M570 741.28l.52-.03v.6h-1.04v-.6zm-.48.5h.96v-.48l-.48.03-.48-.03z" stroke="#333" stroke-width=".05" fill="#333"/><path d="M570 833.77l-4.63-14.27h9.26z" fill="#333"/><path d="M570 835.4l-5.32-16.4h10.64zm-3.95-15.4l3.95 12.15 3.95-12.15z" stroke="#333" stroke-width=".05" fill="#333"/><use xlink:href="#k" transform="matrix(1,0,0,1,554.55,777.5460071282384) translate(0.005000000000000782 14.4)"/><path d="M453.15 78.58a8 8 0 0 1 8-8h836.75a8 8 0 0 1 8 8v25.15a8 8 0 0 1-8 8H461.15a8 8 0 0 1-8-8z" stroke="#000" stroke-opacity="0" stroke-width="2" fill="#fff" fill-opacity="0"/><use xlink:href="#l" transform="matrix(1,0,0,1,457.14655278534315,74.57761197839864) translate(241.19827160493827 23.657777777777778)"/><use xlink:href="#m" transform="matrix(1,0,0,1,457.14655278534315,74.57761197839864) translate(318.1896296296296 23.657777777777778)"/><use xlink:href="#n" transform="matrix(1,0,0,1,457.14655278534315,74.57761197839864) translate(355.99333333333334 23.657777777777778)"/><use xlink:href="#o" transform="matrix(1,0,0,1,457.14655278534315,74.57761197839864) translate(501.380987654321 23.657777777777778)"/><path d="M453.15 119.73a8 8 0 0 1 8-8h837.7a8 8 0 0 1 8 8v2.85a8 8 0 0 1-8 8h-837.7a8 8 0 0 1-8-8z" stroke="#000" stroke-opacity="0" stroke-width="2" fill="#fff" fill-opacity="0"/><use xlink:href="#p" transform="matrix(1,0,0,1,457.1465527853436,115.73283593529744) translate(340.2895781893004 14.917037037037037)"/><use xlink:href="#q" transform="matrix(1,0,0,1,457.1465527853436,115.73283593529744) translate(402.2395781893004 14.917037037037037)"/><use xlink:href="#r" transform="matrix(1,0,0,1,457.1465527853436,115.73283593529744) translate(414.6890637860082 14.917037037037037)"/><use xlink:href="#s" transform="matrix(1,0,0,1,457.1465527853436,115.73283593529744) translate(461.34276748971195 14.917037037037037)"/><use xlink:href="#t" transform="matrix(1,0,0,1,457.1465527853436,115.73283593529744) translate(478.33865226337446 14.917037037037037)"/><path d="M355.7 672.56H276.9v-1h78.8zm127.64 0h-94.7v-1h94.7z" stroke="#3a414a" stroke-width=".05" fill="#3a414a"/><path d="M483.84 672.06l.05.5h-.57v-1h.56z" fill="#3a414a"/><path d="M483.87 672.06l.05.52h-.62v-1.05h.62zm-.5-.48v.95h.5l-.05-.47.04-.48z" stroke="#3a414a" stroke-width=".05" fill="#3a414a"/><path d="M276.4 676.7l-14.28-4.64 14.26-4.64z" fill="#3a414a"/><path d="M276.9 677.38l-16.4-5.32 16.38-5.33zm-13.16-5.32l12.14 3.94v-7.9z" stroke="#3a414a" stroke-width=".05" fill="#3a414a"/><use xlink:href="#u" transform="matrix(1,0,0,1,355.6965412988428,661.2571760774941) translate(0.004999999999999005 14.4)"/><path d="M100 615.94a8 8 0 0 1 8-8h144a8 8 0 0 1 8 8v104a8 8 0 0 1-8 8H108a8 8 0 0 1-8-8z" stroke="#000" stroke-opacity="0" stroke-width="2" fill="#6db1ff"/><use xlink:href="#v" transform="matrix(1,0,0,1,112,619.9428238515854) translate(3.5999999999999943 40.8)"/><use xlink:href="#w" transform="matrix(1,0,0,1,112,619.9428238515854) translate(41.55 40.8)"/><use xlink:href="#x" transform="matrix(1,0,0,1,112,619.9428238515854) translate(48.099999999999994 62.4)"/><path d="M515.06 842.85A13.73 13.73 0 0 1 527 835.9h86a13.73 13.73 0 0 1 11.94 6.95l26.12 46.07a14.12 14.12 0 0 1 0 13.93l-26.12 46.07A13.73 13.73 0 0 1 613 955.9h-86a13.73 13.73 0 0 1-11.94-6.98l-26.12-46.07a14.12 14.12 0 0 1 0-13.93z" stroke="#3a414a" fill="#ffdda6"/><use xlink:href="#y" transform="matrix(1,0,0,1,490,840.885647703171) translate(13.549999999999997 37)"/><use xlink:href="#z" transform="matrix(1,0,0,1,490,840.885647703171) translate(126.45 37)"/><use xlink:href="#A" transform="matrix(1,0,0,1,490,840.885647703171) translate(34.05 58.6)"/><use xlink:href="#B" transform="matrix(1,0,0,1,490,840.885647703171) translate(90 58.6)"/><use xlink:href="#C" transform="matrix(1,0,0,1,490,840.885647703171) translate(37.55 80.20000000000002)"/><path d="M570 956.9v64.16" stroke="#3a414a" fill="none"/><path d="M570.5 956.9h-1v-.5h1z" stroke="#3a414a" stroke-width=".05" fill="#3a414a"/><path d="M570 1035.83l-4.63-14.27h9.26z" stroke="#3a414a" fill="#3a414a"/><path d="M490 1045.94a8 8 0 0 1 8-8h144a8 8 0 0 1 8 8v104a8 8 0 0 1-8 8H498a8 8 0 0 1-8-8z" stroke="#3a414a" fill="#6db1ff"/><use xlink:href="#D" transform="matrix(1,0,0,1,502,1049.9428238515854) translate(42.574999999999996 51.6)"/><path d="M651 1097.94h172.12" stroke="#3a414a" fill="none"/><path d="M651 1098.44h-.5v-1h.5z" stroke="#3a414a" stroke-width=".05" fill="#3a414a"/><path d="M837.88 1097.94l-14.26 4.64v-9.27z" stroke="#3a414a" fill="#3a414a"/><path d="M840 1045.94a8 8 0 0 1 8-8h144a8 8 0 0 1 8 8v104a8 8 0 0 1-8 8H848a8 8 0 0 1-8-8z" stroke="#3a414a" fill="#6db1ff"/><use xlink:href="#E" transform="matrix(1,0,0,1,852,1049.9428238515854) translate(13.049999999999997 30)"/><use xlink:href="#z" transform="matrix(1,0,0,1,852,1049.9428238515854) translate(102.95 30)"/><use xlink:href="#A" transform="matrix(1,0,0,1,852,1049.9428238515854) translate(6.075000000000003 51.6)"/><use xlink:href="#F" transform="matrix(1,0,0,1,852,1049.9428238515854) translate(62.025000000000006 51.6)"/><use xlink:href="#G" transform="matrix(1,0,0,1,852,1049.9428238515854) translate(87.025 51.6)"/><use xlink:href="#H" transform="matrix(1,0,0,1,852,1049.9428238515854) translate(5.599999999999994 73.2)"/><use xlink:href="#I" transform="matrix(1,0,0,1,852,1049.9428238515854) translate(44.55 73.2)"/><use xlink:href="#J" transform="matrix(1,0,0,1,852,1049.9428238515854) translate(83.5 73.2)"/><path d="M507.5 1248a8 8 0 0 1 8-8h109a8 8 0 0 1 8 8v84a8 8 0 0 1-8 8h-109a8 8 0 0 1-8-8z" stroke="#3a414a" fill="#6db1ff"/><use xlink:href="#K" transform="matrix(1,0,0,1,519.5,1252) translate(28.05 41.6)"/><path d="M570 1239v-64.17" stroke="#3a414a" fill="none"/><path d="M570.5 1239.5h-1v-.5h1z" stroke="#3a414a" stroke-width=".05" fill="#3a414a"/><path d="M570 1160.06l4.63 14.27h-9.26z" stroke="#3a414a" fill="#3a414a"/><path d="M1420 752.1a8 8 0 0 1 8-8h144a8 8 0 0 1 8 8v112c-26.72-20.03-43.36-20.03-53.44-20.03-16 0-37.28 20.04-53.28 20.04-9.92 0-26.72 0-53.28-20.03z" stroke="#3a414a" fill="#cfe4ff"/><use xlink:href="#L" transform="matrix(1,0,0,1,1425,749.114352296829) translate(28.025 27)"/><use xlink:href="#z" transform="matrix(1,0,0,1,1425,749.114352296829) translate(101.975 27)"/><use xlink:href="#M" transform="matrix(1,0,0,1,1425,749.114352296829) translate(18.025 48.6)"/><use xlink:href="#N" transform="matrix(1,0,0,1,1425,749.114352296829) translate(111.975 48.6)"/><use xlink:href="#O" transform="matrix(1,0,0,1,1425,749.114352296829) translate(10.099999999999994 70.2)"/><use xlink:href="#P" transform="matrix(1,0,0,1,1425,749.114352296829) translate(97 70.2)"/><path d="M1100 668.1c0 6.63-26.86 12-60 12s-60-5.37-60-12v-96c0-6.62 26.86-12 60-12s60 5.38 60 12z" stroke="#3a414a" fill="#6f7681"/><path d="M1100 572.1c0 6.63-26.86 12-60 12s-60-5.37-60-12" stroke="#3a414a" fill="none"/><use xlink:href="#Q" transform="matrix(1,0,0,1,985,589.1074068293393) translate(21.574999999999996 35.8)"/><use xlink:href="#R" transform="matrix(1,0,0,1,985,589.1074068293393) translate(21.049999999999997 57.4)"/><path d="M1500 743.1v-19a12 12 0 0 0-12-12h-436a12 12 0 0 1-12-12V697" stroke="#3a414a" fill="none"/><path d="M1500.5 743.6h-1v-.5h1z" stroke="#3a414a" stroke-width=".05" fill="#3a414a"/><path d="M1040 682.23l4.63 14.26h-9.27z" stroke="#3a414a" fill="#3a414a"/><path d="M1488 280c17.67 0 32 17.9 32 40s-14.33 40-32 40h-96c-17.67 0-32-17.9-32-40s14.33-40 32-40z" stroke="#000" stroke-opacity="0" fill="#54c45e"/><use xlink:href="#S" transform="matrix(1,0,0,1,1365,285) translate(60.075 38.6)"/><path d="M180 607.44v-70.56" stroke="#3a414a" fill="none"/><path d="M180.5 607.94h-1v-.5h1z" stroke="#3a414a" stroke-width=".05" fill="#3a414a"/><path d="M180 522.12l4.63 14.26h-9.26z" stroke="#3a414a" fill="#3a414a"/><path d="M100 408a8 8 0 0 1 8-8h144a8 8 0 0 1 8 8v104a8 8 0 0 1-8 8H108a8 8 0 0 1-8-8z" stroke="#3a414a" fill="#6db1ff"/><use xlink:href="#T" transform="matrix(1,0,0,1,112,412) translate(12.599999999999994 30)"/><use xlink:href="#B" transform="matrix(1,0,0,1,112,412) translate(87.45 30)"/><use xlink:href="#U" transform="matrix(1,0,0,1,112,412) translate(12.575000000000003 51.6)"/><use xlink:href="#z" transform="matrix(1,0,0,1,112,412) translate(103.425 51.6)"/><use xlink:href="#V" transform="matrix(1,0,0,1,112,412) translate(33.525 73.2)"/><path d="M1420 1036.97a8 8 0 0 1 8-8h144a8 8 0 0 1 8 8v104a8 8 0 0 1-8 8h-144a8 8 0 0 1-8-8z" stroke="#3a414a" fill="#6db1ff"/><g><use xlink:href="#W" transform="matrix(1,0,0,1,1432,1040.9714119257928) translate(0.5750000000000028 30)"/><use xlink:href="#X" transform="matrix(1,0,0,1,1432,1040.9714119257928) translate(50.475 30)"/><use xlink:href="#Y" transform="matrix(1,0,0,1,1432,1040.9714119257928) translate(125.425 30)"/><use xlink:href="#Z" transform="matrix(1,0,0,1,1432,1040.9714119257928) translate(14.049999999999997 51.6)"/><use xlink:href="#aa" transform="matrix(1,0,0,1,1432,1040.9714119257928) translate(4.574999999999996 73.2)"/><use xlink:href="#ab" transform="matrix(1,0,0,1,1432,1040.9714119257928) translate(45.525 73.2)"/><use xlink:href="#ac" transform="matrix(1,0,0,1,1432,1040.9714119257928) translate(91.475 73.2)"/></g><path d="M1331.65 1089.47H1214.5l-.64.05-.6.15-.58.24-.54.33-.47.4-.4.48-.33.55-.24.58-.15.6-.1 1.4-.2.77-.3.72-.4.67-.5.58-.6.5-.67.42-.72.3-.77.18-.77.06H1001v-1h204.5l.64-.05.6-.15.58-.24.54-.32.47-.4.4-.48.33-.53.24-.58.15-.62.1-1.4.2-.76.3-.73.4-.67.5-.6.6-.5.67-.42.72-.3.77-.17.77-.06h117.18zm71.47 0h-40.57v-1h40.57z" stroke="#3a414a" stroke-width=".05" fill="#3a414a"/><path d="M1001 1098.44h-.5v-1h.5z" fill="#3a414a"/><path d="M1001.04 1098.47h-.56v-1.05h.56zm-.5-1v.95h.45v-.95z" stroke="#3a414a" stroke-width=".05" fill="#3a414a"/><path d="M1417.88 1088.97l-14.26 4.64v-9.26z" fill="#3a414a"/><path d="M1419.5 1088.97l-16.38 5.33v-10.65zm-15.38 3.95l12.14-3.95-12.14-3.95z" stroke="#3a414a" stroke-width=".05" fill="#3a414a"/><g><use xlink:href="#k" transform="matrix(1,0,0,1,1331.6488188886128,1078.1714119257929) translate(0.005000000000000782 14.4)"/></g><path d="M1500 1027.97V870.82" stroke="#3a414a" fill="none"/><path d="M1500.5 1028.47h-1v-.5h1z" stroke="#3a414a" stroke-width=".05" fill="#3a414a"/><path d="M1500 856.06l4.63 14.26h-9.27z" stroke="#3a414a" fill="#3a414a"/><path d="M1120 448.1a8 8 0 0 1 8-8h144a8 8 0 0 1 8 8v112c-26.72-20.03-43.36-20.03-53.44-20.03-16 0-37.28 20.04-53.28 20.04-9.92 0-26.72 0-53.28-20.03z" stroke="#3a414a" fill="#cfe4ff"/><g><use xlink:href="#L" transform="matrix(1,0,0,1,1125,445.1074068293393) translate(28.025 37.8)"/><use xlink:href="#z" transform="matrix(1,0,0,1,1125,445.1074068293393) translate(101.975 37.8)"/><use xlink:href="#M" transform="matrix(1,0,0,1,1125,445.1074068293393) translate(9.549999999999997 59.4)"/><use xlink:href="#ad" transform="matrix(1,0,0,1,1125,445.1074068293393) translate(103.5 59.4)"/></g><path d="M1040 559.1v-47a12 12 0 0 1 12-12h51.12" stroke="#3a414a" fill="none"/><path d="M1040.5 559.63l-.5-.02-.5.02v-.53h1z" stroke="#3a414a" stroke-width=".05" fill="#3a414a"/><path d="M1117.88 500.1l-14.26 4.64v-9.27z" stroke="#3a414a" fill="#3a414a"/><path d="M1281 500.2h48.95a.05.05 0 0 0 .05-.04.05.05 0 0 1 .05-.05h33.07" stroke="#3a414a" fill="none"/><path d="M1281 500.7h-.5v-1h.5z" stroke="#3a414a" stroke-width=".05" fill="#3a414a"/><path d="M1377.88 500.1l-14.26 4.64v-9.27z" stroke="#3a414a" fill="#3a414a"/><path d="M1500 548.1c0 6.63-26.86 12-60 12s-60-5.37-60-12v-96c0-6.62 26.86-12 60-12s60 5.38 60 12z" stroke="#3a414a" fill="#6f7681"/><path d="M1500 452.1c0 6.63-26.86 12-60 12s-60-5.37-60-12" stroke="#3a414a" fill="none"/><g><use xlink:href="#Q" transform="matrix(1,0,0,1,1385,469.1074068293393) translate(21.574999999999996 35.8)"/><use xlink:href="#ae" transform="matrix(1,0,0,1,1385,469.1074068293393) translate(27.075 57.4)"/></g><path d="M1440 439.1V376.4" stroke="#3a414a" fill="none"/><path d="M1440.5 439.63l-.5-.02-.5.02v-.53h1z" stroke="#3a414a" stroke-width=".05" fill="#3a414a"/><path d="M1440 361.62l4.63 14.26h-9.27z" stroke="#3a414a" fill="#3a414a"/><path d="M1193.94 1025.22a9.28 9.28 0 0 1 12.12 0l67.88 58.53a6.9 6.9 0 0 1 0 10.44l-67.88 58.52a9.28 9.28 0 0 1-12.12 0l-67.88-58.53a6.9 6.9 0 0 1 0-10.45z" stroke="#000" stroke-opacity="0" stroke-width="2" fill="#ced4db"/><g><use xlink:href="#W" transform="matrix(1,0,0,1,1125,1025) translate(8.599999999999994 67.60000000000001)"/><use xlink:href="#af" transform="matrix(1,0,0,1,1125,1025) translate(58.49999999999999 67.60000000000001)"/></g><path d="M1200.5 1022.47h-1v-29.93h1zm0-51.53h-1v-14.06h1z" stroke="#3a414a" stroke-width=".05" fill="#3a414a"/><path d="M1200.5 1023l-.5-.03-.5.04v-.54h1z" fill="#3a414a"/><path d="M1200.53 1023.03l-.53-.03-.53.03v-.6h1.06zm-1-.54v.48l.47-.03.47.03v-.5z" stroke="#3a414a" stroke-width=".05" fill="#3a414a"/><path d="M1204.63 956.38h-9.27l4.64-14.26z" fill="#3a414a"/><path d="M1205.32 956.88h-10.64l5.32-16.38zm-9.27-1h7.9l-3.95-12.14z" stroke="#3a414a" stroke-width=".05" fill="#3a414a"/><g><use xlink:href="#u" transform="matrix(1,0,0,1,1183.525,970.9362245702107) translate(0.004999999999999005 14.4)"/></g><path d="M1135 848a8 8 0 0 1 8-8h114a8 8 0 0 1 8 8v84a8 8 0 0 1-8 8h-114a8 8 0 0 1-8-8z" stroke="#3a414a" fill="#6db1ff"/><g><use xlink:href="#ag" transform="matrix(1,0,0,1,1147,852) translate(20.6 30.799999999999997)"/><use xlink:href="#ah" transform="matrix(1,0,0,1,1147,852) translate(23.525 52.4)"/></g><defs><path fill="#fff" d="M14 0l48-248h34L48 0H14" id="ai"/><path fill="#fff" d="M67-158c22-48 132-52 116 29L158 0h-32l25-140c3-38-53-32-70-12C52-117 51-52 38 0H6l36-190h30" id="aj"/><path fill="#fff" d="M16 0l37-190h31L47 0H16zm30-211c10-23 31-35 45-54h38l-1 5-66 49H46" id="ak"/><path fill="#fff" d="M44-68c0 29 11 47 38 47 30 0 42-19 51-41l28 9C148-21 126 4 82 4 31 4 10-29 12-85c3-77 74-140 146-93 12 8 15 23 18 40l-31 5c-1-22-13-36-36-36-52 0-65 49-65 101" id="al"/><path fill="#fff" d="M50-231l6-30h32l-6 30H50zM6 0l37-190h31L37 0H6" id="am"/><path fill="#fff" d="M30-147c31-64 166-65 159 27C183-49 158 1 86 4 9 8 1-88 30-147zM88-20c53 0 68-48 68-100 0-31-11-51-44-50-52 1-68 46-68 97 0 32 13 53 44 53" id="an"/><g id="a"><use transform="matrix(0.05,0,0,0.05,0,0)" xlink:href="#ai"/><use transform="matrix(0.05,0,0,0.05,5,0)" xlink:href="#aj"/><use transform="matrix(0.05,0,0,0.05,15,0)" xlink:href="#ak"/><use transform="matrix(0.05,0,0,0.05,20,0)" xlink:href="#al"/><use transform="matrix(0.05,0,0,0.05,29,0)" xlink:href="#am"/><use transform="matrix(0.05,0,0,0.05,32.95,0)" xlink:href="#an"/></g><path fill="#fff" d="M133-28C103 26-5 8 13-77c13-62 24-115 90-117 29-1 46 15 56 35l19-102h32L160 0h-30zM45-64c-2 27 10 43 35 43 54-1 69-50 69-103 0-29-15-46-42-46-53-1-58 58-62 106" id="ao"/><path fill="#fff" d="M111-194c62-3 86 47 72 106H45c-7 38 6 69 45 68 27-1 43-14 53-32l24 11C152-15 129 4 87 4 38 3 12-23 12-71c0-70 32-119 99-123zm44 81c14-66-71-72-95-28-4 8-8 17-11 28h106" id="ap"/><path fill="#fff" d="M51-54c-9 22 5 41 31 30L79-1C43 14 10-4 19-52l22-115H19l5-23h22l19-43h21l-9 43h35l-4 23H73" id="aq"/><path fill="#fff" d="M76-167L44 0H12l33-167H18l4-23h27c3-47 25-81 82-69l-4 24c-35-8-44 15-46 45h37l-5 23H76" id="ar"/><path fill="#fff" d="M165-48c-4 18 1 34 23 27l-3 20c-29 8-62 0-52-35h-2C116-14 99 4 63 4 30 4 8-16 8-49c0-68 71-67 138-67 10-26 0-56-31-54-26 1-42 9-47 31l-32-5c8-67 160-71 144 15-5 28-9 54-15 81zM42-50c3 52 80 24 89-6 7-12 7-24 11-38-47 1-103-4-100 44" id="as"/><path fill="#fff" d="M44-68c0 29 11 47 38 47 30 0 42-19 51-41l28 9C148-21 126 4 82 4 31 4 10-29 12-85c3-77 74-140 146-93 12 8 15 23 18 40l-31 5c-1-22-13-36-36-36-52 0-65 49-65 101zM85 43c0-13-18-15-31-12L71 0h19L80 17c16 1 28 8 28 24 0 34-40 36-72 32l4-16c19 4 44 4 45-14" id="at"/><path fill="#fff" d="M166-48c-4 18 1 34 23 27l-3 20c-29 8-62 0-52-35h-2C117-14 100 4 64 4 31 4 9-16 9-49c0-68 71-67 138-67 10-26 0-56-31-54-26 1-42 9-47 31l-32-5c8-67 160-71 144 15-5 28-9 54-15 81zM43-50c3 52 80 24 89-6 7-12 7-24 11-38-47 1-103-4-100 44zm150-208c-8 21-15 46-44 47-22 0-30-19-50-21-14 0-21 10-25 21H58c8-21 14-47 44-47 22 0 32 18 50 21 13-1 21-10 25-21h16" id="au"/><g id="b"><use transform="matrix(0.05,0,0,0.05,0,0)" xlink:href="#ai"/><use transform="matrix(0.05,0,0,0.05,5,0)" xlink:href="#ao"/><use transform="matrix(0.05,0,0,0.05,15,0)" xlink:href="#ap"/><use transform="matrix(0.05,0,0,0.05,25,0)" xlink:href="#aj"/><use transform="matrix(0.05,0,0,0.05,35,0)" xlink:href="#aq"/><use transform="matrix(0.05,0,0,0.05,40,0)" xlink:href="#am"/><use transform="matrix(0.05,0,0,0.05,43.95,0)" xlink:href="#ar"/><use transform="matrix(0.05,0,0,0.05,48.95,0)" xlink:href="#am"/><use transform="matrix(0.05,0,0,0.05,52.900000000000006,0)" xlink:href="#al"/><use transform="matrix(0.05,0,0,0.05,61.900000000000006,0)" xlink:href="#as"/><use transform="matrix(0.05,0,0,0.05,71.9,0)" xlink:href="#at"/><use transform="matrix(0.05,0,0,0.05,80.9,0)" xlink:href="#au"/><use transform="matrix(0.05,0,0,0.05,90.9,0)" xlink:href="#an"/></g><g id="c"><use transform="matrix(0.05,0,0,0.05,0,0)" xlink:href="#ao"/><use transform="matrix(0.05,0,0,0.05,10,0)" xlink:href="#ap"/></g><path fill="#fff" d="M133-28C103 26-5 8 13-77c13-62 24-115 90-117 29-1 46 15 56 35 2-12 6-24 8-34h31L144 75h-31zM45-64c-2 27 10 43 35 43 54-1 69-50 69-103 0-29-15-46-42-46-53-1-58 58-62 106" id="av"/><path fill="#fff" d="M67 3c-93-2-31-127-26-193h32L48-50c-3 39 53 32 70 12 30-34 30-101 43-152h32L157 0h-30c1-10 6-24 4-33-14 20-29 37-64 36" id="aw"/><g id="d"><use transform="matrix(0.05,0,0,0.05,0,0)" xlink:href="#ap"/><use transform="matrix(0.05,0,0,0.05,10,0)" xlink:href="#aq"/><use transform="matrix(0.05,0,0,0.05,15,0)" xlink:href="#am"/><use transform="matrix(0.05,0,0,0.05,18.95,0)" xlink:href="#av"/><use transform="matrix(0.05,0,0,0.05,28.950000000000003,0)" xlink:href="#aw"/><use transform="matrix(0.05,0,0,0.05,38.95,0)" xlink:href="#ap"/><use transform="matrix(0.05,0,0,0.05,48.95,0)" xlink:href="#aq"/><use transform="matrix(0.05,0,0,0.05,53.95,0)" xlink:href="#as"/></g><g id="e"><use transform="matrix(0.05,0,0,0.05,0,0)" xlink:href="#ao"/><use transform="matrix(0.05,0,0,0.05,10,0)" xlink:href="#ap"/></g><path fill="#fff" d="M124 0L87-78 21 0h-35l86-98-46-92h33l34 74 61-74h37l-83 92 50 98h-34" id="ax"/><g id="f"><use transform="matrix(0.05,0,0,0.05,0,0)" xlink:href="#al"/><use transform="matrix(0.05,0,0,0.05,9,0)" xlink:href="#as"/><use transform="matrix(0.05,0,0,0.05,19,0)" xlink:href="#am"/><use transform="matrix(0.05,0,0,0.05,22.95,0)" xlink:href="#ax"/><use transform="matrix(0.05,0,0,0.05,31.950000000000003,0)" xlink:href="#as"/></g><path fill="#fff" d="M67-162c32-53 139-36 121 50C175-51 163 2 97 4 68 4 52-11 42-31 38 6 28 39 22 75H-9l50-265h29c-1 10 0 20-3 28zm89 36c0-26-10-43-35-43-54 0-67 50-69 103-1 29 14 45 42 46 53 0 62-58 62-106" id="ay"/><path fill="#fff" d="M66-151c12-25 30-51 66-40l-6 26C45-176 58-65 38 0H6l36-190h30" id="az"/><g id="g"><use transform="matrix(0.05,0,0,0.05,0,0)" xlink:href="#ay"/><use transform="matrix(0.05,0,0,0.05,10,0)" xlink:href="#an"/><use transform="matrix(0.05,0,0,0.05,20,0)" xlink:href="#az"/></g><path fill="#fff" d="M166-48c-4 18 1 34 23 27l-3 20c-29 8-62 0-52-35h-2C117-14 100 4 64 4 31 4 9-16 9-49c0-68 71-67 138-67 10-26 0-56-31-54-26 1-42 9-47 31l-32-5c8-67 160-71 144 15-5 28-9 54-15 81zM43-50c3 52 80 24 89-6 7-12 7-24 11-38-47 1-103-4-100 44zm104-212c9 18 24 30 30 51-29 2-32-20-49-30-22 10-32 32-67 30v-4l51-47h35" id="aA"/><path fill="#fff" d="M248-111c6-24 9-61-24-58-72 9-57 108-77 169h-31l26-142c3-37-50-30-64-10C52-115 50-51 37 0H6l36-190h30c-1 10-6 24-4 32 13-43 101-52 105 5 13-22 29-41 61-41 90 0 28 129 23 194h-31" id="aB"/><path fill="#fff" d="M55-144c13 50 104 24 104 88C159 21 15 23 1-39l26-10c6 40 102 42 102-4-13-50-104-23-104-87 0-71 143-71 148-8l-29 4c-5-35-85-37-89 0" id="aC"/><g id="h"><use transform="matrix(0.05,0,0,0.05,0,0)" xlink:href="#al"/><use transform="matrix(0.05,0,0,0.05,9,0)" xlink:href="#aA"/><use transform="matrix(0.05,0,0,0.05,19,0)" xlink:href="#aB"/><use transform="matrix(0.05,0,0,0.05,33.95,0)" xlink:href="#ap"/><use transform="matrix(0.05,0,0,0.05,43.95,0)" xlink:href="#az"/><use transform="matrix(0.05,0,0,0.05,49.900000000000006,0)" xlink:href="#as"/><use transform="matrix(0.05,0,0,0.05,59.900000000000006,0)" xlink:href="#aC"/></g><path fill="#fff" d="M11 0l48-248h184l-5 28H87l-15 79h140l-5 27H67L50-27h158l-5 27H11" id="aD"/><g id="i"><use transform="matrix(0.05,0,0,0.05,0,0)" xlink:href="#aD"/><use transform="matrix(0.05,0,0,0.05,12,0)" xlink:href="#aq"/><use transform="matrix(0.05,0,0,0.05,17,0)" xlink:href="#am"/><use transform="matrix(0.05,0,0,0.05,20.95,0)" xlink:href="#av"/><use transform="matrix(0.05,0,0,0.05,30.950000000000003,0)" xlink:href="#aw"/><use transform="matrix(0.05,0,0,0.05,40.95,0)" xlink:href="#ap"/><use transform="matrix(0.05,0,0,0.05,50.95,0)" xlink:href="#aq"/><use transform="matrix(0.05,0,0,0.05,55.95,0)" xlink:href="#as"/></g><path fill="#fff" d="M28-184c13-41 42-62 95-67 81-7 97 95 38 128-25 14-56 24-63 57H67c6-67 99-52 99-119 0-27-20-37-46-38-33 0-55 19-63 46zM53 0l6-35h35L87 0H53" id="aE"/><g id="j"><use transform="matrix(0.05,0,0,0.05,0,0)" xlink:href="#am"/><use transform="matrix(0.05,0,0,0.05,3.95,0)" xlink:href="#ao"/><use transform="matrix(0.05,0,0,0.05,13.949999999999998,0)" xlink:href="#ap"/><use transform="matrix(0.05,0,0,0.05,23.95,0)" xlink:href="#aj"/><use transform="matrix(0.05,0,0,0.05,33.95,0)" xlink:href="#aq"/><use transform="matrix(0.05,0,0,0.05,38.95,0)" xlink:href="#am"/><use transform="matrix(0.05,0,0,0.05,42.900000000000006,0)" xlink:href="#ar"/><use transform="matrix(0.05,0,0,0.05,47.900000000000006,0)" xlink:href="#am"/><use transform="matrix(0.05,0,0,0.05,51.85,0)" xlink:href="#al"/><use transform="matrix(0.05,0,0,0.05,60.85,0)" xlink:href="#as"/><use transform="matrix(0.05,0,0,0.05,70.85000000000001,0)" xlink:href="#ao"/><use transform="matrix(0.05,0,0,0.05,80.85000000000001,0)" xlink:href="#as"/><use transform="matrix(0.05,0,0,0.05,90.85000000000001,0)" xlink:href="#aE"/></g><path fill="#3a414a" d="M185-189c-5-48-123-54-124 2 14 75 158 14 163 119 3 78-121 87-175 55-17-10-28-26-33-46l33-7c5 56 141 63 141-1 0-78-155-14-162-118-5-82 145-84 179-34 5 7 8 16 11 25" id="aF"/><path fill="#3a414a" d="M24-231v-30h32v30H24zM24 0v-190h32V0H24" id="aG"/><path fill="#3a414a" d="M210-169c-67 3-38 105-44 169h-31v-121c0-29-5-50-35-48C34-165 62-65 56 0H25l-1-190h30c1 10-1 24 2 32 10-44 99-50 107 0 11-21 27-35 58-36 85-2 47 119 55 194h-31v-121c0-29-5-49-35-48" id="aH"/><g id="k"><use transform="matrix(0.05,0,0,0.05,0,0)" xlink:href="#aF"/><use transform="matrix(0.05,0,0,0.05,12,0)" xlink:href="#aG"/><use transform="matrix(0.05,0,0,0.05,15.949999999999998,0)" xlink:href="#aH"/></g><path fill="#a9afb8" d="M76-208v77h127v40H76V0H24v-248h183v40H76" id="aI"/><path fill="#a9afb8" d="M25 0v-261h50V0H25" id="aJ"/><path fill="#a9afb8" d="M85 4C-2 5 27-109 22-190h50c7 57-23 150 33 157 60-5 35-97 40-157h50l1 190h-47c-2-12 1-28-3-38-12 25-28 42-61 42" id="aK"/><path fill="#a9afb8" d="M144 0l-44-69L55 0H2l70-98-66-92h53l41 62 40-62h54l-67 91 71 99h-54" id="aL"/><path fill="#a9afb8" d="M110-194c64 0 96 36 96 99 0 64-35 99-97 99-61 0-95-36-95-99 0-62 34-99 96-99zm-1 164c35 0 45-28 45-65 0-40-10-65-43-65-34 0-45 26-45 65 0 36 10 65 43 65" id="aM"/><g id="l"><use transform="matrix(0.0728395061728395,0,0,0.0728395061728395,0,0)" xlink:href="#aI"/><use transform="matrix(0.0728395061728395,0,0,0.0728395061728395,15.95185185185185,0)" xlink:href="#aJ"/><use transform="matrix(0.0728395061728395,0,0,0.0728395061728395,23.235802469135802,0)" xlink:href="#aK"/><use transform="matrix(0.0728395061728395,0,0,0.0728395061728395,39.187654320987654,0)" xlink:href="#aL"/><use transform="matrix(0.0728395061728395,0,0,0.0728395061728395,53.75555555555555,0)" xlink:href="#aM"/></g><path fill="#a9afb8" d="M88-194c31-1 46 15 58 34l-1-101h50l1 261h-48c-2-10 0-23-3-31C134-8 116 4 84 4 32 4 16-41 15-95c0-56 19-97 73-99zm17 164c33 0 40-30 41-66 1-37-9-64-41-64s-38 30-39 65c0 43 13 65 39 65" id="aN"/><path fill="#a9afb8" d="M185-48c-13 30-37 53-82 52C43 2 14-33 14-96s30-98 90-98c62 0 83 45 84 108H66c0 31 8 55 39 56 18 0 30-7 34-22zm-45-69c5-46-57-63-70-21-2 6-4 13-4 21h74" id="aO"/><g id="m"><use transform="matrix(0.0728395061728395,0,0,0.0728395061728395,0,0)" xlink:href="#aN"/><use transform="matrix(0.0728395061728395,0,0,0.0728395061728395,15.95185185185185,0)" xlink:href="#aO"/></g><path fill="#a9afb8" d="M133-34C117-15 103 5 69 4 32 3 11-16 11-54c-1-60 55-63 116-61 1-26-3-47-28-47-18 1-26 9-28 27l-52-2c7-38 36-58 82-57s74 22 75 68l1 82c-1 14 12 18 25 15v27c-30 8-71 5-69-32zm-48 3c29 0 43-24 42-57-32 0-66-3-65 30 0 17 8 27 23 27" id="aP"/><path fill="#a9afb8" d="M115-3C79 11 28 4 28-45v-112H4v-33h27l15-45h31v45h36v33H77v99c-1 23 16 31 38 25v30" id="aQ"/><path fill="#a9afb8" d="M220-157c-53 9-28 100-34 157h-49v-107c1-27-5-49-29-50C55-147 81-57 75 0H25l-1-190h47c2 12-1 28 3 38 10-53 101-56 108 0 13-22 24-43 59-42 82 1 51 116 57 194h-49v-107c-1-25-5-48-29-50" id="aR"/><path fill="#a9afb8" d="M190-63c-7 42-38 67-86 67-59 0-84-38-90-98-12-110 154-137 174-36l-49 2c-2-19-15-32-35-32-30 0-35 28-38 64-6 74 65 87 74 30zm-84 77c20 1 33 9 33 27 0 32-36 36-71 33V53c15 1 39 4 39-11 0-13-16-12-31-12L87 0h25" id="aS"/><path fill="#a9afb8" d="M132-34C116-15 102 5 68 4 31 3 10-16 10-54c-1-60 55-63 116-61 1-26-3-47-28-47-18 1-26 9-28 27l-52-2c7-38 36-58 82-57s74 22 75 68l1 82c-1 14 12 18 25 15v27c-30 8-71 5-69-32zm-48 3c29 0 43-24 42-57-32 0-66-3-65 30 0 17 8 27 23 27zm82-228c-2 27-9 52-40 51-27-1-66-46-73 0H29c0-29 9-51 39-51 28 0 66 44 74 0h24" id="aT"/><g id="n"><use transform="matrix(0.0728395061728395,0,0,0.0728395061728395,0,0)" xlink:href="#aP"/><use transform="matrix(0.0728395061728395,0,0,0.0728395061728395,14.5679012345679,0)" xlink:href="#aK"/><use transform="matrix(0.0728395061728395,0,0,0.0728395061728395,30.51975308641975,0)" xlink:href="#aQ"/><use transform="matrix(0.0728395061728395,0,0,0.0728395061728395,39.187654320987654,0)" xlink:href="#aM"/><use transform="matrix(0.0728395061728395,0,0,0.0728395061728395,55.1395061728395,0)" xlink:href="#aR"/><use transform="matrix(0.0728395061728395,0,0,0.0728395061728395,78.44814814814815,0)" xlink:href="#aP"/><use transform="matrix(0.0728395061728395,0,0,0.0728395061728395,93.01604938271605,0)" xlink:href="#aS"/><use transform="matrix(0.0728395061728395,0,0,0.0728395061728395,107.58395061728395,0)" xlink:href="#aT"/><use transform="matrix(0.0728395061728395,0,0,0.0728395061728395,122.15185185185184,0)" xlink:href="#aM"/></g><path fill="#a9afb8" d="M199 0l-22-63H83L61 0H9l90-248h61L250 0h-51zm-33-102l-36-108c-10 38-24 72-36 108h72" id="aU"/><path fill="#a9afb8" d="M135-194c53 0 70 44 70 98 0 56-19 98-73 100-31 1-45-17-59-34 3 33 2 69 2 105H25l-1-265h48c2 10 0 23 3 31 11-24 29-35 60-35zM114-30c33 0 39-31 40-66 0-38-9-64-40-64-56 0-55 130 0 130" id="aV"/><path fill="#a9afb8" d="M25-224v-37h50v37H25zM25 0v-190h50V0H25" id="aW"/><path fill="#a9afb8" d="M190-63c-7 42-38 67-86 67-59 0-84-38-90-98-12-110 154-137 174-36l-49 2c-2-19-15-32-35-32-30 0-35 28-38 64-6 74 65 87 74 30" id="aX"/><path fill="#a9afb8" d="M147 0L96-86 75-71V0H25v-261h50v150l67-79h53l-66 74L201 0h-54" id="aY"/><g id="o"><use transform="matrix(0.0728395061728395,0,0,0.0728395061728395,0,0)" xlink:href="#aU"/><use transform="matrix(0.0728395061728395,0,0,0.0728395061728395,18.86543209876543,0)" xlink:href="#aV"/><use transform="matrix(0.0728395061728395,0,0,0.0728395061728395,34.81728395061728,0)" xlink:href="#aJ"/><use transform="matrix(0.0728395061728395,0,0,0.0728395061728395,42.10123456790124,0)" xlink:href="#aW"/><use transform="matrix(0.0728395061728395,0,0,0.0728395061728395,49.38518518518518,0)" xlink:href="#aV"/><use transform="matrix(0.0728395061728395,0,0,0.0728395061728395,65.33703703703704,0)" xlink:href="#aP"/><use transform="matrix(0.0728395061728395,0,0,0.0728395061728395,79.90493827160493,0)" xlink:href="#aX"/><use transform="matrix(0.0728395061728395,0,0,0.0728395061728395,94.47283950617283,0)" xlink:href="#aY"/></g><path fill="#a9afb8" d="M205 0l-28-72H64L36 0H1l101-248h38L239 0h-34zm-38-99l-47-123c-12 45-31 82-46 123h93" id="aZ"/><path fill="#a9afb8" d="M24 0v-261h32V0H24" id="ba"/><path fill="#a9afb8" d="M24-231v-30h32v30H24zM24 0v-190h32V0H24" id="bb"/><path fill="#a9afb8" d="M135-143c-3-34-86-38-87 0 15 53 115 12 119 90S17 21 10-45l28-5c4 36 97 45 98 0-10-56-113-15-118-90-4-57 82-63 122-42 12 7 21 19 24 35" id="bc"/><path fill="#a9afb8" d="M100-194c62-1 85 37 85 99 1 63-27 99-86 99S16-35 15-95c0-66 28-99 85-99zM99-20c44 1 53-31 53-75 0-43-8-75-51-75s-53 32-53 75 10 74 51 75" id="bd"/><path fill="#a9afb8" d="M117-194c89-4 53 116 60 194h-32v-121c0-31-8-49-39-48C34-167 62-67 57 0H25l-1-190h30c1 10-1 24 2 32 11-22 29-35 61-36" id="be"/><g id="p"><use transform="matrix(0.04248971193415638,0,0,0.04248971193415638,0,0)" xlink:href="#aZ"/><use transform="matrix(0.04248971193415638,0,0,0.04248971193415638,10.19753086419753,0)" xlink:href="#ba"/><use transform="matrix(0.04248971193415638,0,0,0.04248971193415638,13.554218106995881,0)" xlink:href="#bb"/><use transform="matrix(0.04248971193415638,0,0,0.04248971193415638,16.910905349794238,0)" xlink:href="#bc"/><use transform="matrix(0.04248971193415638,0,0,0.04248971193415638,24.559053497942386,0)" xlink:href="#bc"/><use transform="matrix(0.04248971193415638,0,0,0.04248971193415638,32.20720164609053,0)" xlink:href="#bd"/><use transform="matrix(0.04248971193415638,0,0,0.04248971193415638,40.70514403292181,0)" xlink:href="#be"/></g><path fill="#a9afb8" d="M32 76v-337h29V76H32" id="bf"/><use transform="matrix(0.04248971193415638,0,0,0.04248971193415638,0,0)" xlink:href="#bf" id="q"/><path fill="#a9afb8" d="M240 0l2-218c-23 76-54 145-80 218h-23L58-218 59 0H30v-248h44l77 211c21-75 51-140 76-211h43V0h-30" id="bg"/><path fill="#a9afb8" d="M141-36C126-15 110 5 73 4 37 3 15-17 15-53c-1-64 63-63 125-63 3-35-9-54-41-54-24 1-41 7-42 31l-33-3c5-37 33-52 76-52 45 0 72 20 72 64v82c-1 20 7 32 28 27v20c-31 9-61-2-59-35zM48-53c0 20 12 33 32 33 41-3 63-29 60-74-43 2-92-5-92 41" id="bh"/><path fill="#a9afb8" d="M114-163C36-179 61-72 57 0H25l-1-190h30c1 12-1 29 2 39 6-27 23-49 58-41v29" id="bi"/><path fill="#a9afb8" d="M96-169c-40 0-48 33-48 73s9 75 48 75c24 0 41-14 43-38l32 2c-6 37-31 61-74 61-59 0-76-41-82-99-10-93 101-131 147-64 4 7 5 14 7 22l-32 3c-4-21-16-35-41-35" id="bj"/><path fill="#a9afb8" d="M106-169C34-169 62-67 57 0H25v-261h32l-1 103c12-21 28-36 61-36 89 0 53 116 60 194h-32v-121c2-32-8-49-39-48" id="bk"/><g id="r"><use transform="matrix(0.04248971193415638,0,0,0.04248971193415638,0,0)" xlink:href="#bg"/><use transform="matrix(0.04248971193415638,0,0,0.04248971193415638,12.704423868312757,0)" xlink:href="#bh"/><use transform="matrix(0.04248971193415638,0,0,0.04248971193415638,21.20236625514403,0)" xlink:href="#bi"/><use transform="matrix(0.04248971193415638,0,0,0.04248971193415638,26.25864197530864,0)" xlink:href="#bj"/><use transform="matrix(0.04248971193415638,0,0,0.04248971193415638,33.90679012345679,0)" xlink:href="#bk"/></g><path fill="#a9afb8" d="M99-251c64 0 84 50 84 122C183-37 130 33 47-8c-14-7-20-23-25-40l30-5c6 39 69 39 84 7 9-19 16-44 16-74-10 22-31 35-62 35-49 0-73-33-73-83 0-54 28-83 82-83zm-1 141c31-1 51-18 51-49 0-36-14-67-51-67-34 0-49 23-49 58 0 34 15 58 49 58" id="bl"/><path fill="#a9afb8" d="M68-38c1 34 0 65-14 84H32c9-13 17-26 17-46H33v-38h35" id="bm"/><g id="s"><use transform="matrix(0.04248971193415638,0,0,0.04248971193415638,0,0)" xlink:href="#bl"/><use transform="matrix(0.04248971193415638,0,0,0.04248971193415638,8.497942386831275,0)" xlink:href="#bm"/></g><path fill="#a9afb8" d="M101-251c82-7 93 87 43 132L82-64C71-53 59-42 53-27h129V0H18c2-99 128-94 128-182 0-28-16-43-45-43s-46 15-49 41l-32-3c6-41 34-60 81-64" id="bn"/><path fill="#a9afb8" d="M101-251c68 0 85 55 85 127S166 4 100 4C33 4 14-52 14-124c0-73 17-127 87-127zm-1 229c47 0 54-49 54-102s-4-102-53-102c-51 0-55 48-55 102 0 53 5 102 54 102" id="bo"/><path fill="#a9afb8" d="M126-127c33 6 58 20 58 59 0 88-139 92-164 29-3-8-5-16-6-25l32-3c6 27 21 44 54 44 32 0 52-15 52-46 0-38-36-46-79-43v-28c39 1 72-4 72-42 0-27-17-43-46-43-28 0-47 15-49 41l-32-3c6-42 35-63 81-64 48-1 79 21 79 65 0 36-21 52-52 59" id="bp"/><g id="t"><use transform="matrix(0.04248971193415638,0,0,0.04248971193415638,0,0)" xlink:href="#bn"/><use transform="matrix(0.04248971193415638,0,0,0.04248971193415638,8.497942386831275,0)" xlink:href="#bo"/><use transform="matrix(0.04248971193415638,0,0,0.04248971193415638,16.99588477366255,0)" xlink:href="#bn"/><use transform="matrix(0.04248971193415638,0,0,0.04248971193415638,25.493827160493822,0)" xlink:href="#bp"/></g><path fill="#3a414a" d="M190 0L58-211 59 0H30v-248h39L202-35l-2-213h31V0h-41" id="bq"/><path fill="#3a414a" d="M141-36C126-15 110 5 73 4 37 3 15-17 15-53c-1-64 63-63 125-63 3-35-9-54-41-54-24 1-41 7-42 31l-33-3c5-37 33-52 76-52 45 0 72 20 72 64v82c-1 20 7 32 28 27v20c-31 9-61-2-59-35zM48-53c0 20 12 33 32 33 41-3 63-29 60-74-43 2-92-5-92 41zm117-205c-3 23-9 48-36 47-26-1-65-44-74 0H39c4-23 8-48 36-47s64 44 74 0h16" id="br"/><path fill="#3a414a" d="M100-194c62-1 85 37 85 99 1 63-27 99-86 99S16-35 15-95c0-66 28-99 85-99zM99-20c44 1 53-31 53-75 0-43-8-75-51-75s-53 32-53 75 10 74 51 75" id="bs"/><g id="u"><use transform="matrix(0.05,0,0,0.05,0,0)" xlink:href="#bq"/><use transform="matrix(0.05,0,0,0.05,12.950000000000001,0)" xlink:href="#br"/><use transform="matrix(0.05,0,0,0.05,22.950000000000003,0)" xlink:href="#bs"/></g><g id="v"><use transform="matrix(0.05,0,0,0.05,0,0)" xlink:href="#bq"/><use transform="matrix(0.05,0,0,0.05,12.950000000000001,0)" xlink:href="#br"/><use transform="matrix(0.05,0,0,0.05,22.950000000000003,0)" xlink:href="#bs"/></g><path fill="#3a414a" d="M85-194c31 0 48 13 60 33l-1-100h32l1 261h-30c-2-10 0-23-3-31C134-8 116 4 85 4 32 4 16-35 15-94c0-66 23-100 70-100zm9 24c-40 0-46 34-46 75 0 40 6 74 45 74 42 0 51-32 51-76 0-42-9-74-50-73" id="bt"/><path fill="#3a414a" d="M100-194c63 0 86 42 84 106H49c0 40 14 67 53 68 26 1 43-12 49-29l28 8c-11 28-37 45-77 45C44 4 14-33 15-96c1-61 26-98 85-98zm52 81c6-60-76-77-97-28-3 7-6 17-6 28h103" id="bu"/><path fill="#3a414a" d="M117-194c89-4 53 116 60 194h-32v-121c0-31-8-49-39-48C34-167 62-67 57 0H25l-1-190h30c1 10-1 24 2 32 11-22 29-35 61-36" id="bv"/><path fill="#3a414a" d="M59-47c-2 24 18 29 38 22v24C64 9 27 4 27-40v-127H5v-23h24l9-43h21v43h35v23H59v120" id="bw"/><path fill="#3a414a" d="M101-234c-31-9-42 10-38 44h38v23H63V0H32v-167H5v-23h27c-7-52 17-82 69-68v24" id="bx"/><path fill="#3a414a" d="M96-169c-40 0-48 33-48 73s9 75 48 75c24 0 41-14 43-38l32 2c-6 37-31 61-74 61-59 0-76-41-82-99-10-93 101-131 147-64 4 7 5 14 7 22l-32 3c-4-21-16-35-41-35" id="by"/><path fill="#3a414a" d="M141-36C126-15 110 5 73 4 37 3 15-17 15-53c-1-64 63-63 125-63 3-35-9-54-41-54-24 1-41 7-42 31l-33-3c5-37 33-52 76-52 45 0 72 20 72 64v82c-1 20 7 32 28 27v20c-31 9-61-2-59-35zM48-53c0 20 12 33 32 33 41-3 63-29 60-74-43 2-92-5-92 41" id="bz"/><g id="w"><use transform="matrix(0.05,0,0,0.05,0,0)" xlink:href="#aG"/><use transform="matrix(0.05,0,0,0.05,3.95,0)" xlink:href="#bt"/><use transform="matrix(0.05,0,0,0.05,13.949999999999998,0)" xlink:href="#bu"/><use transform="matrix(0.05,0,0,0.05,23.95,0)" xlink:href="#bv"/><use transform="matrix(0.05,0,0,0.05,33.95,0)" xlink:href="#bw"/><use transform="matrix(0.05,0,0,0.05,38.95,0)" xlink:href="#aG"/><use transform="matrix(0.05,0,0,0.05,42.900000000000006,0)" xlink:href="#bx"/><use transform="matrix(0.05,0,0,0.05,47.900000000000006,0)" xlink:href="#aG"/><use transform="matrix(0.05,0,0,0.05,51.85,0)" xlink:href="#by"/><use transform="matrix(0.05,0,0,0.05,60.85,0)" xlink:href="#bz"/><use transform="matrix(0.05,0,0,0.05,70.85000000000001,0)" xlink:href="#bt"/><use transform="matrix(0.05,0,0,0.05,80.85000000000001,0)" xlink:href="#bz"/></g><path fill="#3a414a" d="M87 75C49 33 22-17 22-94c0-76 28-126 65-167h31c-38 41-64 92-64 168S80 34 118 75H87" id="bA"/><path fill="#3a414a" d="M84 4C-5 8 30-112 23-190h32v120c0 31 7 50 39 49 72-2 45-101 50-169h31l1 190h-30c-1-10 1-25-2-33-11 22-28 36-60 37" id="bB"/><path fill="#3a414a" d="M24 0v-261h32V0H24" id="bC"/><path fill="#3a414a" d="M33-261c38 41 65 92 65 168S71 34 33 75H2C39 34 66-17 66-93S39-220 2-261h31" id="bD"/><g id="x"><use transform="matrix(0.05,0,0,0.05,0,0)" xlink:href="#bA"/><use transform="matrix(0.05,0,0,0.05,5.95,0)" xlink:href="#bv"/><use transform="matrix(0.05,0,0,0.05,15.949999999999998,0)" xlink:href="#bB"/><use transform="matrix(0.05,0,0,0.05,25.950000000000003,0)" xlink:href="#bC"/><use transform="matrix(0.05,0,0,0.05,29.899999999999995,0)" xlink:href="#bC"/><use transform="matrix(0.05,0,0,0.05,33.85,0)" xlink:href="#bD"/></g><path fill="#3a414a" d="M205 0l-28-72H64L36 0H1l101-248h38L239 0h-34zm-38-99l-47-123c-12 45-31 82-46 123h93" id="bE"/><path fill="#3a414a" d="M177-190C167-65 218 103 67 71c-23-6-38-20-44-43l32-5c15 47 100 32 89-28v-30C133-14 115 1 83 1 29 1 15-40 15-95c0-56 16-97 71-98 29-1 48 16 59 35 1-10 0-23 2-32h30zM94-22c36 0 50-32 50-73 0-42-14-75-50-75-39 0-46 34-46 75s6 73 46 73" id="bF"/><path fill="#3a414a" d="M114-163C36-179 61-72 57 0H25l-1-190h30c1 12-1 29 2 39 6-27 23-49 58-41v29" id="bG"/><path fill="#3a414a" d="M115-194c55 1 70 41 70 98S169 2 115 4C84 4 66-9 55-30l1 105H24l-1-265h31l2 30c10-21 28-34 59-34zm-8 174c40 0 45-34 45-75s-6-73-45-74c-42 0-51 32-51 76 0 43 10 73 51 73" id="bH"/><g id="y"><use transform="matrix(0.05,0,0,0.05,0,0)" xlink:href="#bE"/><use transform="matrix(0.05,0,0,0.05,12,0)" xlink:href="#bF"/><use transform="matrix(0.05,0,0,0.05,22,0)" xlink:href="#bG"/><use transform="matrix(0.05,0,0,0.05,27.950000000000003,0)" xlink:href="#bB"/><use transform="matrix(0.05,0,0,0.05,37.95,0)" xlink:href="#bH"/><use transform="matrix(0.05,0,0,0.05,47.95,0)" xlink:href="#bz"/><use transform="matrix(0.05,0,0,0.05,57.95,0)" xlink:href="#aH"/><use transform="matrix(0.05,0,0,0.05,72.9,0)" xlink:href="#bu"/><use transform="matrix(0.05,0,0,0.05,82.9,0)" xlink:href="#bv"/><use transform="matrix(0.05,0,0,0.05,92.9,0)" xlink:href="#bw"/><use transform="matrix(0.05,0,0,0.05,97.9,0)" xlink:href="#bs"/></g><g id="z"><use transform="matrix(0.05,0,0,0.05,0,0)" xlink:href="#bt"/><use transform="matrix(0.05,0,0,0.05,10,0)" xlink:href="#bu"/></g><path fill="#3a414a" d="M141 0L90-78 38 0H4l68-98-65-92h35l48 74 47-74h35l-64 92 68 98h-35" id="bI"/><path fill="#3a414a" d="M135-143c-3-34-86-38-87 0 15 53 115 12 119 90S17 21 10-45l28-5c4 36 97 45 98 0-10-56-113-15-118-90-4-57 82-63 122-42 12 7 21 19 24 35" id="bJ"/><g id="A"><use transform="matrix(0.05,0,0,0.05,0,0)" xlink:href="#by"/><use transform="matrix(0.05,0,0,0.05,9,0)" xlink:href="#bz"/><use transform="matrix(0.05,0,0,0.05,19,0)" xlink:href="#aG"/><use transform="matrix(0.05,0,0,0.05,22.95,0)" xlink:href="#bI"/><use transform="matrix(0.05,0,0,0.05,31.950000000000003,0)" xlink:href="#bz"/><use transform="matrix(0.05,0,0,0.05,41.95,0)" xlink:href="#bJ"/></g><g id="B"><use transform="matrix(0.05,0,0,0.05,0,0)" xlink:href="#bH"/><use transform="matrix(0.05,0,0,0.05,10,0)" xlink:href="#bz"/><use transform="matrix(0.05,0,0,0.05,20,0)" xlink:href="#bG"/><use transform="matrix(0.05,0,0,0.05,25.950000000000003,0)" xlink:href="#bz"/></g><g id="C"><use transform="matrix(0.05,0,0,0.05,0,0)" xlink:href="#aH"/><use transform="matrix(0.05,0,0,0.05,14.950000000000001,0)" xlink:href="#bs"/><use transform="matrix(0.05,0,0,0.05,24.950000000000003,0)" xlink:href="#bv"/><use transform="matrix(0.05,0,0,0.05,34.95,0)" xlink:href="#bw"/><use transform="matrix(0.05,0,0,0.05,39.95,0)" xlink:href="#bz"/><use transform="matrix(0.05,0,0,0.05,49.95,0)" xlink:href="#bF"/><use transform="matrix(0.05,0,0,0.05,59.95,0)" xlink:href="#bu"/><use transform="matrix(0.05,0,0,0.05,69.95,0)" xlink:href="#aH"/></g><path fill="#3a414a" d="M212-179c-10-28-35-45-73-45-59 0-87 40-87 99 0 60 29 101 89 101 43 0 62-24 78-52l27 14C228-24 195 4 139 4 59 4 22-46 18-125c-6-104 99-153 187-111 19 9 31 26 39 46" id="bK"/><path fill="#3a414a" d="M100-194c63 0 86 42 84 106H49c0 40 14 67 53 68 26 1 43-12 49-29l28 8c-11 28-37 45-77 45C44 4 14-33 15-96c1-61 26-98 85-98zm52 81c6-60-76-77-97-28-3 7-6 17-6 28h103zm-74-98c8-23 27-35 38-54h36v5l-58 49H78" id="bL"/><g id="D"><use transform="matrix(0.05,0,0,0.05,0,0)" xlink:href="#bK"/><use transform="matrix(0.05,0,0,0.05,12.950000000000001,0)" xlink:href="#bL"/><use transform="matrix(0.05,0,0,0.05,22.950000000000003,0)" xlink:href="#bC"/><use transform="matrix(0.05,0,0,0.05,26.900000000000002,0)" xlink:href="#bB"/><use transform="matrix(0.05,0,0,0.05,36.900000000000006,0)" xlink:href="#bC"/><use transform="matrix(0.05,0,0,0.05,40.85000000000001,0)" xlink:href="#bz"/></g><path fill="#3a414a" d="M240 0l2-218c-23 76-54 145-80 218h-23L58-218 59 0H30v-248h44l77 211c21-75 51-140 76-211h43V0h-30" id="bM"/><g id="E"><use transform="matrix(0.05,0,0,0.05,0,0)" xlink:href="#bM"/><use transform="matrix(0.05,0,0,0.05,14.950000000000001,0)" xlink:href="#bs"/><use transform="matrix(0.05,0,0,0.05,24.950000000000003,0)" xlink:href="#bv"/><use transform="matrix(0.05,0,0,0.05,34.95,0)" xlink:href="#bw"/><use transform="matrix(0.05,0,0,0.05,39.95,0)" xlink:href="#bz"/><use transform="matrix(0.05,0,0,0.05,49.95,0)" xlink:href="#bF"/><use transform="matrix(0.05,0,0,0.05,59.95,0)" xlink:href="#bu"/><use transform="matrix(0.05,0,0,0.05,69.95,0)" xlink:href="#aH"/></g><g id="F"><use transform="matrix(0.05,0,0,0.05,0,0)" xlink:href="#bv"/><use transform="matrix(0.05,0,0,0.05,10,0)" xlink:href="#bs"/></g><g id="G"><use transform="matrix(0.05,0,0,0.05,0,0)" xlink:href="#bH"/><use transform="matrix(0.05,0,0,0.05,10,0)" xlink:href="#bz"/><use transform="matrix(0.05,0,0,0.05,20,0)" xlink:href="#bC"/><use transform="matrix(0.05,0,0,0.05,23.95,0)" xlink:href="#bC"/><use transform="matrix(0.05,0,0,0.05,27.899999999999995,0)" xlink:href="#bu"/><use transform="matrix(0.05,0,0,0.05,37.9,0)" xlink:href="#bw"/></g><g id="H"><use transform="matrix(0.05,0,0,0.05,0,0)" xlink:href="#bx"/><use transform="matrix(0.05,0,0,0.05,5,0)" xlink:href="#bu"/><use transform="matrix(0.05,0,0,0.05,15,0)" xlink:href="#aG"/><use transform="matrix(0.05,0,0,0.05,18.95,0)" xlink:href="#bw"/><use transform="matrix(0.05,0,0,0.05,23.95,0)" xlink:href="#bs"/></g><g id="I"><use transform="matrix(0.05,0,0,0.05,0,0)" xlink:href="#bH"/><use transform="matrix(0.05,0,0,0.05,10,0)" xlink:href="#bu"/><use transform="matrix(0.05,0,0,0.05,20,0)" xlink:href="#bC"/><use transform="matrix(0.05,0,0,0.05,23.95,0)" xlink:href="#bz"/></g><g id="J"><use transform="matrix(0.05,0,0,0.05,0,0)" xlink:href="#by"/><use transform="matrix(0.05,0,0,0.05,9,0)" xlink:href="#bL"/><use transform="matrix(0.05,0,0,0.05,19,0)" xlink:href="#bC"/><use transform="matrix(0.05,0,0,0.05,22.95,0)" xlink:href="#bB"/><use transform="matrix(0.05,0,0,0.05,32.95,0)" xlink:href="#bC"/><use transform="matrix(0.05,0,0,0.05,36.900000000000006,0)" xlink:href="#bz"/></g><path fill="#3a414a" d="M30-248c87 1 191-15 191 75 0 78-77 80-158 76V0H30v-248zm33 125c57 0 124 11 124-50 0-59-68-47-124-48v98" id="bN"/><g id="K"><use transform="matrix(0.05,0,0,0.05,0,0)" xlink:href="#bN"/><use transform="matrix(0.05,0,0,0.05,12,0)" xlink:href="#bz"/><use transform="matrix(0.05,0,0,0.05,22,0)" xlink:href="#bC"/><use transform="matrix(0.05,0,0,0.05,25.950000000000003,0)" xlink:href="#bC"/><use transform="matrix(0.05,0,0,0.05,29.899999999999995,0)" xlink:href="#bu"/><use transform="matrix(0.05,0,0,0.05,39.9,0)" xlink:href="#bw"/></g><path fill="#3a414a" d="M143 4C61 4 22-44 18-125c-5-107 100-154 193-111 17 8 29 25 37 43l-32 9c-13-25-37-40-76-40-61 0-88 39-88 99 0 61 29 100 91 101 35 0 62-11 79-27v-45h-74v-28h105v86C228-13 192 4 143 4" id="bO"/><path fill="#3a414a" d="M96-169c-40 0-48 33-48 73s9 75 48 75c24 0 41-14 43-38l32 2c-6 37-31 61-74 61-59 0-76-41-82-99-10-93 101-131 147-64 4 7 5 14 7 22l-32 3c-4-21-16-35-41-35zm3 187c19-1 33 8 33 26 0 31-30 33-64 32V58c18 2 39 4 41-13 1-15-18-13-34-13L87 0h19" id="bP"/><g id="L"><use transform="matrix(0.05,0,0,0.05,0,0)" xlink:href="#bO"/><use transform="matrix(0.05,0,0,0.05,14,0)" xlink:href="#bu"/><use transform="matrix(0.05,0,0,0.05,24,0)" xlink:href="#bG"/><use transform="matrix(0.05,0,0,0.05,29.950000000000003,0)" xlink:href="#bz"/><use transform="matrix(0.05,0,0,0.05,39.95,0)" xlink:href="#bP"/><use transform="matrix(0.05,0,0,0.05,48.95,0)" xlink:href="#br"/><use transform="matrix(0.05,0,0,0.05,58.95,0)" xlink:href="#bs"/></g><g id="M"><use transform="matrix(0.05,0,0,0.05,0,0)" xlink:href="#bt"/><use transform="matrix(0.05,0,0,0.05,10,0)" xlink:href="#bs"/><use transform="matrix(0.05,0,0,0.05,20,0)" xlink:href="#by"/><use transform="matrix(0.05,0,0,0.05,29,0)" xlink:href="#bB"/><use transform="matrix(0.05,0,0,0.05,39,0)" xlink:href="#aH"/><use transform="matrix(0.05,0,0,0.05,53.95,0)" xlink:href="#bu"/><use transform="matrix(0.05,0,0,0.05,63.95,0)" xlink:href="#bv"/><use transform="matrix(0.05,0,0,0.05,73.95,0)" xlink:href="#bw"/><use transform="matrix(0.05,0,0,0.05,78.95,0)" xlink:href="#bs"/></g><g id="N"><use transform="matrix(0.05,0,0,0.05,0,0)" xlink:href="#bt"/><use transform="matrix(0.05,0,0,0.05,10,0)" xlink:href="#bs"/></g><path fill="#3a414a" d="M108 0H70L1-190h34L89-25l56-165h34" id="bQ"/><g id="O"><use transform="matrix(0.05,0,0,0.05,0,0)" xlink:href="#bG"/><use transform="matrix(0.05,0,0,0.05,5.95,0)" xlink:href="#bu"/><use transform="matrix(0.05,0,0,0.05,15.949999999999998,0)" xlink:href="#bJ"/><use transform="matrix(0.05,0,0,0.05,24.95,0)" xlink:href="#bH"/><use transform="matrix(0.05,0,0,0.05,34.95,0)" xlink:href="#bu"/><use transform="matrix(0.05,0,0,0.05,44.95,0)" xlink:href="#by"/><use transform="matrix(0.05,0,0,0.05,53.95,0)" xlink:href="#bw"/><use transform="matrix(0.05,0,0,0.05,58.95,0)" xlink:href="#aG"/><use transform="matrix(0.05,0,0,0.05,62.900000000000006,0)" xlink:href="#bQ"/><use transform="matrix(0.05,0,0,0.05,71.9,0)" xlink:href="#bs"/></g><g id="P"><use transform="matrix(0.05,0,0,0.05,0,0)" xlink:href="#bH"/><use transform="matrix(0.05,0,0,0.05,10,0)" xlink:href="#bz"/><use transform="matrix(0.05,0,0,0.05,20,0)" xlink:href="#bC"/><use transform="matrix(0.05,0,0,0.05,23.95,0)" xlink:href="#bC"/><use transform="matrix(0.05,0,0,0.05,27.899999999999995,0)" xlink:href="#bu"/><use transform="matrix(0.05,0,0,0.05,37.9,0)" xlink:href="#bw"/></g><g id="Q"><use transform="matrix(0.05,0,0,0.05,0,0)" xlink:href="#aF"/><use transform="matrix(0.05,0,0,0.05,12,0)" xlink:href="#bu"/><use transform="matrix(0.05,0,0,0.05,22,0)" xlink:href="#bG"/><use transform="matrix(0.05,0,0,0.05,27.950000000000003,0)" xlink:href="#bQ"/><use transform="matrix(0.05,0,0,0.05,36.95,0)" xlink:href="#aG"/><use transform="matrix(0.05,0,0,0.05,40.900000000000006,0)" xlink:href="#bt"/><use transform="matrix(0.05,0,0,0.05,50.900000000000006,0)" xlink:href="#bs"/><use transform="matrix(0.05,0,0,0.05,60.900000000000006,0)" xlink:href="#bG"/></g><path fill="#3a414a" d="M143 0L79-87 56-68V0H24v-261h32v163l83-92h37l-77 82L181 0h-38" id="bR"/><g id="R"><use transform="matrix(0.05,0,0,0.05,0,0)" xlink:href="#bE"/><use transform="matrix(0.05,0,0,0.05,12,0)" xlink:href="#bH"/><use transform="matrix(0.05,0,0,0.05,22,0)" xlink:href="#bC"/><use transform="matrix(0.05,0,0,0.05,25.950000000000003,0)" xlink:href="#aG"/><use transform="matrix(0.05,0,0,0.05,29.899999999999995,0)" xlink:href="#bH"/><use transform="matrix(0.05,0,0,0.05,39.9,0)" xlink:href="#bz"/><use transform="matrix(0.05,0,0,0.05,49.9,0)" xlink:href="#by"/><use transform="matrix(0.05,0,0,0.05,58.900000000000006,0)" xlink:href="#bR"/></g><path fill="#3a414a" d="M63-220v92h138v28H63V0H30v-248h175v28H63" id="bS"/><g id="S"><use transform="matrix(0.05,0,0,0.05,0,0)" xlink:href="#bS"/><use transform="matrix(0.05,0,0,0.05,10.950000000000001,0)" xlink:href="#aG"/><use transform="matrix(0.05,0,0,0.05,14.9,0)" xlink:href="#aH"/></g><path fill="#3a414a" d="M233-177c-1 41-23 64-60 70L243 0h-38l-65-103H63V0H30v-248c88 3 205-21 203 71zM63-129c60-2 137 13 137-47 0-61-80-42-137-45v92" id="bT"/><g id="T"><use transform="matrix(0.05,0,0,0.05,0,0)" xlink:href="#bT"/><use transform="matrix(0.05,0,0,0.05,12.950000000000001,0)" xlink:href="#bu"/><use transform="matrix(0.05,0,0,0.05,22.950000000000003,0)" xlink:href="#bw"/><use transform="matrix(0.05,0,0,0.05,27.950000000000003,0)" xlink:href="#bs"/><use transform="matrix(0.05,0,0,0.05,37.95,0)" xlink:href="#bG"/><use transform="matrix(0.05,0,0,0.05,43.900000000000006,0)" xlink:href="#bv"/><use transform="matrix(0.05,0,0,0.05,53.900000000000006,0)" xlink:href="#bz"/><use transform="matrix(0.05,0,0,0.05,63.900000000000006,0)" xlink:href="#bG"/></g><g id="U"><use transform="matrix(0.05,0,0,0.05,0,0)" xlink:href="#bQ"/><use transform="matrix(0.05,0,0,0.05,9,0)" xlink:href="#bu"/><use transform="matrix(0.05,0,0,0.05,19,0)" xlink:href="#bG"/><use transform="matrix(0.05,0,0,0.05,24.95,0)" xlink:href="#aG"/><use transform="matrix(0.05,0,0,0.05,28.899999999999995,0)" xlink:href="#bx"/><use transform="matrix(0.05,0,0,0.05,33.9,0)" xlink:href="#aG"/><use transform="matrix(0.05,0,0,0.05,37.85,0)" xlink:href="#by"/><use transform="matrix(0.05,0,0,0.05,46.85,0)" xlink:href="#bz"/><use transform="matrix(0.05,0,0,0.05,56.85,0)" xlink:href="#bP"/><use transform="matrix(0.05,0,0,0.05,65.85,0)" xlink:href="#br"/><use transform="matrix(0.05,0,0,0.05,75.85,0)" xlink:href="#bs"/></g><path fill="#3a414a" d="M145-31C134-9 116 4 85 4 32 4 16-35 15-94c0-59 17-99 70-100 32-1 48 14 60 33 0-11-1-24 2-32h30l-1 268h-32zM93-21c41 0 51-33 51-76s-8-73-50-73c-40 0-46 35-46 75s5 74 45 74" id="bU"/><path fill="#3a414a" d="M33 0v-38h34V0H33" id="bV"/><g id="V"><use transform="matrix(0.05,0,0,0.05,0,0)" xlink:href="#bu"/><use transform="matrix(0.05,0,0,0.05,10,0)" xlink:href="#bw"/><use transform="matrix(0.05,0,0,0.05,15,0)" xlink:href="#aG"/><use transform="matrix(0.05,0,0,0.05,18.95,0)" xlink:href="#bU"/><use transform="matrix(0.05,0,0,0.05,28.950000000000003,0)" xlink:href="#bB"/><use transform="matrix(0.05,0,0,0.05,38.95,0)" xlink:href="#bu"/><use transform="matrix(0.05,0,0,0.05,48.95,0)" xlink:href="#bw"/><use transform="matrix(0.05,0,0,0.05,53.95,0)" xlink:href="#bz"/><use transform="matrix(0.05,0,0,0.05,63.95,0)" xlink:href="#bV"/></g><g id="W"><use transform="matrix(0.05,0,0,0.05,0,0)" xlink:href="#bN"/><use transform="matrix(0.05,0,0,0.05,12,0)" xlink:href="#bz"/><use transform="matrix(0.05,0,0,0.05,22,0)" xlink:href="#bC"/><use transform="matrix(0.05,0,0,0.05,25.950000000000003,0)" xlink:href="#bC"/><use transform="matrix(0.05,0,0,0.05,29.899999999999995,0)" xlink:href="#bu"/><use transform="matrix(0.05,0,0,0.05,39.9,0)" xlink:href="#bw"/></g><g id="X"><use transform="matrix(0.05,0,0,0.05,0,0)" xlink:href="#aH"/><use transform="matrix(0.05,0,0,0.05,14.950000000000001,0)" xlink:href="#bs"/><use transform="matrix(0.05,0,0,0.05,24.950000000000003,0)" xlink:href="#bv"/><use transform="matrix(0.05,0,0,0.05,34.95,0)" xlink:href="#bw"/><use transform="matrix(0.05,0,0,0.05,39.95,0)" xlink:href="#bz"/><use transform="matrix(0.05,0,0,0.05,49.95,0)" xlink:href="#bt"/><use transform="matrix(0.05,0,0,0.05,59.95,0)" xlink:href="#bs"/></g><use transform="matrix(0.05,0,0,0.05,0,0)" xlink:href="#bL" id="Y"/><path fill="#3a414a" d="M106-169C34-169 62-67 57 0H25v-261h32l-1 103c12-21 28-36 61-36 89 0 53 116 60 194h-32v-121c2-32-8-49-39-48" id="bW"/><g id="Z"><use transform="matrix(0.05,0,0,0.05,0,0)" xlink:href="#bu"/><use transform="matrix(0.05,0,0,0.05,10,0)" xlink:href="#bv"/><use transform="matrix(0.05,0,0,0.05,20,0)" xlink:href="#by"/><use transform="matrix(0.05,0,0,0.05,29,0)" xlink:href="#bz"/><use transform="matrix(0.05,0,0,0.05,39,0)" xlink:href="#aH"/><use transform="matrix(0.05,0,0,0.05,53.95,0)" xlink:href="#aG"/><use transform="matrix(0.05,0,0,0.05,57.900000000000006,0)" xlink:href="#bv"/><use transform="matrix(0.05,0,0,0.05,67.9,0)" xlink:href="#bW"/><use transform="matrix(0.05,0,0,0.05,77.9,0)" xlink:href="#bz"/><use transform="matrix(0.05,0,0,0.05,87.9,0)" xlink:href="#bt"/><use transform="matrix(0.05,0,0,0.05,97.9,0)" xlink:href="#bs"/></g><g id="aa"><use transform="matrix(0.05,0,0,0.05,0,0)" xlink:href="#bH"/><use transform="matrix(0.05,0,0,0.05,10,0)" xlink:href="#bz"/><use transform="matrix(0.05,0,0,0.05,20,0)" xlink:href="#bG"/><use transform="matrix(0.05,0,0,0.05,25.950000000000003,0)" xlink:href="#bz"/></g><g id="ab"><use transform="matrix(0.05,0,0,0.05,0,0)" xlink:href="#bs"/><use transform="matrix(0.05,0,0,0.05,10,0)" xlink:href="#bB"/><use transform="matrix(0.05,0,0,0.05,20,0)" xlink:href="#bw"/><use transform="matrix(0.05,0,0,0.05,25,0)" xlink:href="#bG"/><use transform="matrix(0.05,0,0,0.05,30.950000000000003,0)" xlink:href="#bs"/></g><g id="ac"><use transform="matrix(0.05,0,0,0.05,0,0)" xlink:href="#bJ"/><use transform="matrix(0.05,0,0,0.05,9,0)" xlink:href="#bu"/><use transform="matrix(0.05,0,0,0.05,19,0)" xlink:href="#bw"/><use transform="matrix(0.05,0,0,0.05,24,0)" xlink:href="#bs"/><use transform="matrix(0.05,0,0,0.05,34,0)" xlink:href="#bG"/></g><path fill="#3a414a" d="M195 0l-74-108L45 0H8l94-129-87-119h37l69 98 67-98h37l-84 118L233 0h-38" id="bX"/><path fill="#3a414a" d="M30 0v-248h33v221h125V0H30" id="bY"/><g id="ad"><use transform="matrix(0.05,0,0,0.05,0,0)" xlink:href="#bX"/><use transform="matrix(0.05,0,0,0.05,12,0)" xlink:href="#bM"/><use transform="matrix(0.05,0,0,0.05,26.950000000000003,0)" xlink:href="#bY"/></g><g id="ae"><use transform="matrix(0.05,0,0,0.05,0,0)" xlink:href="#bK"/><use transform="matrix(0.05,0,0,0.05,12.950000000000001,0)" xlink:href="#bC"/><use transform="matrix(0.05,0,0,0.05,16.900000000000002,0)" xlink:href="#aG"/><use transform="matrix(0.05,0,0,0.05,20.85,0)" xlink:href="#bu"/><use transform="matrix(0.05,0,0,0.05,30.85,0)" xlink:href="#bv"/><use transform="matrix(0.05,0,0,0.05,40.85,0)" xlink:href="#bw"/><use transform="matrix(0.05,0,0,0.05,45.85,0)" xlink:href="#bu"/></g><path fill="#3a414a" d="M103-251c84 0 111 97 45 133-19 10-37 24-39 52H78c0-63 77-55 77-114 0-30-21-42-52-43-32 0-53 17-56 46l-32-2c7-45 34-72 88-72zM77 0v-35h34V0H77" id="bZ"/><g id="af"><use transform="matrix(0.05,0,0,0.05,0,0)" xlink:href="#by"/><use transform="matrix(0.05,0,0,0.05,9,0)" xlink:href="#bs"/><use transform="matrix(0.05,0,0,0.05,19,0)" xlink:href="#aH"/><use transform="matrix(0.05,0,0,0.05,33.95,0)" xlink:href="#bH"/><use transform="matrix(0.05,0,0,0.05,43.95,0)" xlink:href="#bC"/><use transform="matrix(0.05,0,0,0.05,47.900000000000006,0)" xlink:href="#bu"/><use transform="matrix(0.05,0,0,0.05,57.900000000000006,0)" xlink:href="#bw"/><use transform="matrix(0.05,0,0,0.05,62.900000000000006,0)" xlink:href="#bs"/><use transform="matrix(0.05,0,0,0.05,72.9,0)" xlink:href="#bZ"/></g><path fill="#3a414a" d="M137 0h-34L2-248h35l83 218 83-218h36" id="ca"/><g id="ag"><use transform="matrix(0.05,0,0,0.05,0,0)" xlink:href="#ca"/><use transform="matrix(0.05,0,0,0.05,11,0)" xlink:href="#bu"/><use transform="matrix(0.05,0,0,0.05,21,0)" xlink:href="#bG"/><use transform="matrix(0.05,0,0,0.05,26.950000000000003,0)" xlink:href="#aG"/><use transform="matrix(0.05,0,0,0.05,30.899999999999995,0)" xlink:href="#bx"/><use transform="matrix(0.05,0,0,0.05,35.9,0)" xlink:href="#aG"/><use transform="matrix(0.05,0,0,0.05,39.85,0)" xlink:href="#by"/><use transform="matrix(0.05,0,0,0.05,48.85,0)" xlink:href="#bz"/><use transform="matrix(0.05,0,0,0.05,58.85,0)" xlink:href="#bG"/></g><g id="ah"><use transform="matrix(0.05,0,0,0.05,0,0)" xlink:href="#bH"/><use transform="matrix(0.05,0,0,0.05,10,0)" xlink:href="#bu"/><use transform="matrix(0.05,0,0,0.05,20,0)" xlink:href="#bt"/><use transform="matrix(0.05,0,0,0.05,30,0)" xlink:href="#aG"/><use transform="matrix(0.05,0,0,0.05,33.95,0)" xlink:href="#bt"/><use transform="matrix(0.05,0,0,0.05,43.95,0)" xlink:href="#bs"/><use transform="matrix(0.05,0,0,0.05,53.95,0)" xlink:href="#bV"/></g></defs></g></svg>